HIERARCHY
ROOT ui
{
	 OFFSET 0 0 0
	 CHANNELS 3 XPosition YPosition Z Position
	 EndSite
	 {
	 OFFSET 0 -1 0
	 }
}
ROOT li
{
	 OFFSET 0 0 0
	 CHANNELS 3 XPosition YPosition Z Position
	 EndSite
	 {
	 OFFSET 0 -1 0
	 }
}
ROOT ul
{
	 OFFSET 0 0 0
	 CHANNELS 3 XPosition YPosition Z Position
	 EndSite
	 {
	 OFFSET 0 -1 0
	 }
}
ROOT ll
{
	 OFFSET 0 0 0
	 CHANNELS 3 XPosition YPosition Z Position
	 EndSite
	 {
	 OFFSET 0 -1 0
	 }
}
ROOT tt
{
	 OFFSET 0 0 0
	 CHANNELS 3 XPosition YPosition Z Position
	 EndSite
	 {
	 OFFSET 0 -1 0
	 }
}
ROOT tb
{
	 OFFSET 0 0 0
	 CHANNELS 3 XPosition YPosition Z Position
	 EndSite
	 {
	 OFFSET 0 -1 0
	 }
}
ROOT td
{
	 OFFSET 0 0 0
	 CHANNELS 3 XPosition YPosition Z Position
	 EndSite
	 {
	 OFFSET 0 -1 0
	 }
}
ROOT v
{
	 OFFSET 0 0 0
	 CHANNELS 3 XPosition YPosition Z Position
	 EndSite
	 {
	 OFFSET 0 -1 0
	 }
}
ROOT bn
{
	 OFFSET 0 0 0
	 CHANNELS 3 XPosition YPosition Z Position
	 EndSite
	 {
	 OFFSET 0 -1 0
	 }
}
MOTION
Frames: 30
Frame Time: 0.002
0.06114877700805664	-0.004882345199584961	0		0.7136504516601563	-2.6583447265625	0		-0.8856532592773437	0.3331160888671875	0		-0.1250855484008789	-3.185781982421875	0		1.8306708984375	-1.39836767578125	0		2.916314697265625	-0.16799623107910155	0		4.26760205078125	0.55797607421875	0		5.88910693359375	0.3487823486328125	0		-0.3000521240234375	5.91315771484375	0		
-0.01288573169708252	0.0010551600456237794	0		0.6647407836914062	-2.64770751953125	0		-0.8798157958984375	0.32902197265625	0		-0.08909027862548828	-3.18423681640625	0		1.844625	-1.3964979248046876	0		2.918416748046875	-0.1519501495361328	0		4.28357177734375	0.564878662109375	0		5.88779736328125	0.38540277099609377	0		-0.23216436767578125	5.9232939453125	0		
-0.012933185577392578	0.00105669903755188	0		0.718723876953125	-2.6513671875	0		-0.8807714233398437	0.3370116882324219	0		-0.158767822265625	-3.161357666015625	0		1.846653564453125	-1.393470947265625	0		2.92734765625	-0.15398143005371093	0		4.287583984375	0.5709470825195313	0		5.8841259765625	0.37195587158203125	0		-0.2664344482421875	5.91871826171875	0		
-0.01294465732574463	0.0010586090087890624	0		0.716754150390625	-2.65431787109375	0		-0.8858428344726562	0.3330508117675781	0		-0.09577770233154297	-3.16915087890625	0		1.88260546875	-1.399865234375	0		2.949464599609375	-0.1441688232421875	0		4.2985546875	0.5709393310546875	0		5.8912509765625	0.37204727172851565	0		-0.23256260681152344	5.92328515625	0		
-0.012938274383544921	0.0010617890357971192	0		0.7069580688476562	-2.6451669921875	0		-0.885846923828125	0.3330263671875	0		-0.13747981262207032	-3.153625244140625	0		1.8826561279296874	-1.3998021240234375	0		2.93041455078125	-0.14883348083496092	0		4.30954248046875	0.5709410400390625	0		5.887076171875	0.39153509521484375	0		-0.2478551025390625	5.9144697265625	0		
-0.015978636741638182	-0.0028952610492706298	0		0.7060292358398438	-2.647125732421875	0		-0.8898980712890625	0.32905322265625	0		-0.09353294372558593	-3.167173095703125	0		1.88271142578125	-1.39973486328125	0		2.9304287109375	-0.14873187255859374	0		4.31360791015625	0.577037353515625	0		5.88761865234375	0.35726025390625	0		-0.266988037109375	5.91870458984375	0		
-0.0030534520149230956	-0.009049006462097168	0		0.6930948486328125	-2.648931396484375	0		-0.8799089965820313	0.32890713500976565	0		-0.13936012268066406	-3.161594970703125	0		1.893745849609375	-1.400800537109375	0		2.9664443359375	-0.14807421875	0		4.3215888671875	0.5770903930664063	0		5.89714111328125	0.4057723388671875	0		-0.21502728271484375	5.9310546875	0		
-0.005870436191558838	0.006999582767486572	0		0.7153279418945313	-2.636169921875	0		-0.8799365234375	0.3288900146484375	0		-0.0831744384765625	-3.15428369140625	0		1.8919510498046874	-1.386699951171875	0		2.95659521484375	-0.134837890625	0		4.33963818359375	0.5840249633789063	0		5.89351025390625	0.39586868286132815	0		-0.2333424530029297	5.92328466796875	0		
-0.012984940528869629	0.0011055599451065064	0		0.67444189453125	-2.630618896484375	0		-0.8899873046875	0.32900311279296873	0		-0.125943603515625	-3.140735595703125	0		1.8830079345703126	-1.3825057373046874	0		2.94548583984375	-0.14058203125	0		4.339578125	0.5841908569335937	0		5.893482421875	0.3962474670410156	0		-0.23358341979980468	5.92329541015625	0		
-0.013054094314575194	0.0011322510242462158	0		0.7093221435546875	-2.6420009765625	0		-0.8960051879882812	0.33407427978515625	0		-0.09395955657958985	-3.14510791015625	0		1.8829849853515626	-1.3824156494140625	0		2.966333251953125	-0.14771548461914064	0		4.33541552734375	0.5784130249023437	0		5.89692041015625	0.3809605712890625	0		-0.2338506774902344	5.92331494140625	0		
-0.016203014373779297	-0.0027940940856933595	0		0.64748583984375	-2.627177734375	0		-0.890177978515625	0.3290082397460937	0		-0.11300467681884765	-3.148839599609375	0		1.8918802490234374	-1.3864281005859376	0		2.974213134765625	-0.14968048095703124	0		4.3432841796875	0.5774926147460937	0		5.889171875	0.41445986938476564	0		-0.2823372497558594	5.90793701171875	0		
-0.013283036231994628	0.0012159759998321533	0		0.7211753540039062	-2.64901806640625	0		-0.8903173828125	0.329028076171875	0		-0.13992213439941406	-3.1394638671875	0		1.8948314208984376	-1.3833580322265624	0		2.968310546875	-0.13146687316894531	0		4.3541357421875	0.57754150390625	0		5.89968212890625	0.3955154113769531	0		-0.28265185546875	5.90797607421875	0		
-0.013436481475830079	0.0012757669687271118	0		0.6633391723632812	-2.62922607421875	0		-0.890480712890625	0.3290614318847656	0		-0.13288339233398438	-3.131494384765625	0		1.8967685546875	-1.379265625	0		2.98106201171875	-0.13947621154785156	0		4.35396533203125	0.5777327880859375	0		5.895390625	0.41508367919921874	0		-0.2489120635986328	5.91360986328125	0		
0.06337501525878907	-5.930889844894409E-4	0		0.7032540283203125	-2.62862255859375	0		-0.89066064453125	0.32910968017578124	0		-0.11289132690429687	-3.125669677734375	0		1.8945892333984375	-1.383112060546875	0		3.01985595703125	-0.14279315185546876	0		4.36477734375	0.5777980346679688	0		5.88816357421875	0.4209088134765625	0		-0.1311277618408203	5.9232314453125	0		
-0.016837217330932616	-0.0025249629020690917	0		0.6751473388671875	-2.628172119140625	0		-0.8958998413085938	0.3252354736328125	0		-0.08203748321533202	-3.1299619140625	0		1.8895806884765625	-1.37191015625	0		2.984766357421875	-0.13519345092773438	0		4.36457958984375	0.578008056640625	0		5.8922177734375	0.4021904296875	0		-0.26473220825195315	5.90294287109375	0		
-0.013979035377502442	0.001543365955352783	0		0.700999267578125	-2.630365478515625	0		-0.8960987548828125	0.3253177185058594	0		-0.1420076446533203	-3.1181279296875	0		1.89246240234375	-1.3687919921875	0		2.98457958984375	-0.1350098876953125	0		4.36830078125	0.5721793823242187	0		5.89208251953125	0.4026399841308594	0		-0.332218017578125	5.891859375	0		
-0.04017477035522461	0.0019829390048980715	0		0.6529903564453124	-2.619641845703125	0		-0.8912559204101562	0.3293586120605469	0		-0.13706947326660157	-3.113069091796875	0		1.903284912109375	-1.36975634765625	0		3.02530908203125	-0.14131231689453125	0		4.376234375	0.5843104248046875	0		5.89778662109375	0.4306104431152344	0		-0.28239141845703125	5.90536572265625	0		
0.07956720733642578	-0.0033313019275665284	0		0.717721923828125	-2.6302724609375	0		-0.8874155883789062	0.3334331359863281	0		-0.1290799102783203	-3.103026611328125	0		1.9043211669921876	-1.3525841064453126	0		3.011221923828125	-0.13193243408203126	0		4.38294775390625	0.578466552734375	0		5.9018359375	0.4136612854003906	0		-0.26476123046875	5.9022841796875	0		
-0.014576430320739747	0.001973476052284241	0		0.7066510009765625	-2.62396044921875	0		-0.8967178955078124	0.32568853759765626	0		-0.06732820892333985	-3.112615966796875	0		1.916221923828125	-1.3465262451171875	0		3.00095361328125	-0.1375841064453125	0		4.3786640625	0.5727706298828125	0		5.892353515625	0.4005915222167969	0		-0.13281382751464843	5.92384130859375	0		
0.06220779800415039	2.2812700271606444E-4	0		0.704480224609375	-2.625735595703125	0		-0.900958251953125	0.3229062194824219	0		-0.12833988952636718	-3.101693359375	0		1.897063720703125	-1.3450723876953126	0		3.00567333984375	-0.14439886474609376	0		4.3853818359375	0.56695849609375	0		5.88508056640625	0.4013233642578125	0		-0.26638409423828124	5.90363623046875	0		
-0.014978438377380372	0.002369874954223633	0		0.7043242797851562	-2.625512451171875	0		-0.9011680908203125	0.3231001281738281	0		-0.09450173950195312	-3.10289599609375	0		1.9089560546875	-1.3389727783203125	0		3.013447265625	-0.14623008728027342	0		4.39315478515625	0.5661524047851563	0		5.88981640625	0.3792389831542969	0		-0.29977801513671876	5.8972412109375	0		
-0.015200380325317384	0.002604918956756592	0		0.6822324829101563	-2.61800048828125	0		-0.8973594970703125	0.32627182006835936	0		-0.12053693389892578	-3.091349365234375	0		1.8958541259765624	-1.3305491943359375	0		3.00525244140625	-0.14384782409667968	0		4.3858515625	0.56054638671875	0		5.88616162109375	0.39376083374023435	0		-0.2509094543457031	5.91287890625	0		
-0.01141759967803955	0.005817070960998535	0		0.7110411987304688	-2.616078857421875	0		-0.8925696411132813	0.33045846557617187	0		-0.11568313598632812	-3.086151123046875	0		1.899705322265625	-1.323308349609375	0		3.0219521484375	-0.14774594116210937	0		4.39250537109375	0.5537899169921875	0		5.8859814453125	0.39436700439453126	0		-0.13311625671386718	5.92371337890625	0		
-0.015748482704162597	0.0031513690948486326	0		0.6817589721679688	-2.61743408203125	0		-0.9070004272460938	0.31990200805664065	0		-0.11391324615478515	-3.083890625	0		1.8994278564453124	-1.3229970703125	0		3.055704833984375	-0.1438292999267578	0		4.39220263671875	0.55413427734375	0		5.88352001953125	0.37257138061523437	0		-0.2667450256347656	5.90360009765625	0		
-0.01609276008605957	0.0034613509178161622	0		0.6975255126953125	-2.6103095703125	0		-0.9073480834960937	0.32020254516601565	0		-0.12409178924560547	-3.07246240234375	0		1.8931822509765626	-1.3155950927734374	0		3.02131640625	-0.14707757568359375	0		4.3916962890625	0.541491943359375	0		5.87810205078125	0.3370343017578125	0		-0.2681397399902344	5.90491943359375	0		
-0.019537704467773438	-1.703370064496994E-4	0		0.6452105712890625	-2.60434814453125	0		-0.9077473754882812	0.32052825927734374	0		-0.11939560699462891	-3.066191650390625	0		1.894830322265625	-1.3122740478515624	0		3.01084912109375	-0.15260374450683595	0		4.370140625	0.5291080932617187	0		5.86494775390625	0.3311347961425781	0		-0.33375369262695315	5.89103173828125	0		
-0.007060164928436279	-0.005974806785583496	0		0.7096432495117188	-2.614775390625	0		-0.8982103881835938	0.3197571105957031	0		-0.1018621597290039	-3.068056640625	0		1.9025040283203125	-1.302014404296875	0		3.042349609375	-0.15662857055664062	0		4.37377392578125	0.5364225463867187	0		5.87660546875	0.302008544921875	0		-0.28504217529296877	5.90579248046875	0		
-4.743480086326599E-4	0.001308678984642029	0		0.6554328002929688	-2.58976123046875	0		-0.8936598510742187	0.32406655883789065	0		-0.10613717651367187	-3.0486416015625	0		1.907075439453125	-1.29571044921875	0		3.018877197265625	-0.153989990234375	0		4.3800361328125	0.5166996459960937	0		5.86632568359375	0.315026123046875	0		-0.2524469451904297	5.912763671875	0		
-0.017976749420166017	0.004895555019378662	0		0.700716796875	-2.60293505859375	0		-0.9092324829101562	0.32163555908203123	0		-0.11758747100830078	-3.039126708984375	0		1.8847574462890626	-1.276076904296875	0		3.025107666015625	-0.1727095184326172	0		4.38642724609375	0.5109704284667969	0		5.86075927734375	0.27771124267578123	0		-0.2680557861328125	5.9043291015625	0		
-0.008670907974243164	-0.004828804969787597	0		0.6741537475585937	-2.59923486328125	0		-0.9098021850585938	0.3220403747558594	0		-0.1151452407836914	-3.034766845703125	0		1.8892425537109374	-1.2697625732421876	0		3.03252001953125	-0.1734430694580078	0		4.36370458984375	0.498584228515625	0		5.86102001953125	0.2696158752441406	0		-0.28270907592773437	5.892896484375	0		
